<svg width="42" height="33" viewBox="0 0 42 33" fill="none" xmlns="http://www.w3.org/2000/svg">
<path d="M1.056 32.512L4.352 29.056H12.256L15.36 32.512H1.056ZM0.0959983 16.8L3.552 20.128V27.968L0.0959983 31.104V16.8ZM16.384 31.104L12.928 27.808V19.936L16.384 16.8V31.104ZM1.024 4.3869e-05H15.328L12.16 3.45604H4.32L1.024 4.3869e-05ZM-1.43051e-06 15.68V1.37604L3.456 4.48004V12.416L-1.43051e-06 15.68ZM16.288 1.37604V15.68L12.832 12.576V4.67204L16.288 1.37604ZM26.6497 32.512L29.9457 29.056H37.8497L40.9537 32.512H26.6497ZM25.6897 16.8L29.1457 20.128V27.968L25.6897 31.104V16.8ZM29.4017 17.952C28.6551 17.3547 27.8977 16.768 27.1297 16.192L29.4017 14.496H38.1377L40.3777 16.192L38.1377 17.952H29.4017ZM26.6177 4.3869e-05H40.9217L37.7537 3.45604H29.9137L26.6177 4.3869e-05ZM41.8818 1.37604V15.68L38.4257 12.576V4.67204L41.8818 1.37604Z" fill="#484848"/>
</svg>
