<svg width="42" height="33" viewBox="0 0 42 33" fill="none" xmlns="http://www.w3.org/2000/svg">
<path d="M1.056 32.512L4.352 29.056H12.256L15.36 32.512H1.056ZM0.0960002 16.8L3.552 20.128V27.968L0.0960002 31.104V16.8ZM16.384 31.104L12.928 27.808V19.936L16.384 16.8V31.104ZM1.024 4.3869e-05H15.328L12.16 3.45604H4.32L1.024 4.3869e-05ZM4.76837e-07 15.68V1.37604L3.456 4.48004V12.416L4.76837e-07 15.68ZM16.288 1.37604V15.68L12.832 12.576V4.67204L16.288 1.37604ZM26.6498 32.512L29.9458 29.056H37.8498L40.9538 32.512H26.6498ZM41.9778 31.104L38.5218 27.808V19.936L41.9778 16.8V31.104ZM29.4018 17.952C28.6551 17.3547 27.8978 16.768 27.1298 16.192L29.4018 14.496H38.1378L40.3778 16.192L38.1378 17.952H29.4018ZM26.6178 4.3869e-05H40.9218L37.7538 3.45604H29.9138L26.6178 4.3869e-05ZM25.5938 15.68V1.37604L29.0498 4.48004V12.416L25.5938 15.68Z" fill="#484848"/>
</svg>
