<svg width="41" height="33" viewBox="0 0 41 33" fill="none" xmlns="http://www.w3.org/2000/svg">
<path d="M0.0959988 32.512L3.328 29.056H11.264L14.368 32.512H0.0959988ZM15.36 31.104L11.936 27.808V19.936L15.36 16.8V31.104ZM2.784 17.952C2.05867 17.3547 1.312 16.768 0.543999 16.192L2.784 14.496H11.52L13.76 16.192L11.52 17.952H2.784ZM-1.43051e-06 4.3869e-05H14.336L11.2 3.45604H3.296L-1.43051e-06 4.3869e-05ZM15.264 1.37604V15.68L11.84 12.576V4.67204L15.264 1.37604ZM25.5937 32.512L28.8897 29.056H36.7937L39.8977 32.512H25.5937ZM24.6337 16.8L28.0897 20.128V27.968L24.6337 31.104V16.8ZM40.9217 31.104L37.4657 27.808V19.936L40.9217 16.8V31.104ZM25.5617 4.3869e-05H39.8657L36.6978 3.45604H28.8577L25.5617 4.3869e-05ZM24.5377 15.68V1.37604L27.9937 4.48004V12.416L24.5377 15.68ZM40.8258 1.37604V15.68L37.3697 12.576V4.67204L40.8258 1.37604Z" fill="#484848"/>
</svg>
