<svg width="12" height="9" viewBox="0 0 12 9" fill="none" xmlns="http://www.w3.org/2000/svg">
<path fill-rule="evenodd" clip-rule="evenodd" d="M0.514286 0C0.650131 0.00177598 0.779912 0.0565297 0.875977 0.152595C0.972042 0.24866 1.0268 0.378441 1.02857 0.514286V8.05714C1.0268 8.19299 0.972042 8.32277 0.875977 8.41883C0.779912 8.5149 0.650131 8.56965 0.514286 8.57143C0.378441 8.56965 0.24866 8.5149 0.152595 8.41883C0.0565297 8.32277 0.00177598 8.19299 0 8.05714L0 0.514286C0.00177598 0.378441 0.0565297 0.24866 0.152595 0.152595C0.24866 0.0565297 0.378441 0.00177598 0.514286 0Z" fill="black"/>
<path fill-rule="evenodd" clip-rule="evenodd" d="M3.25696 0C3.39281 0.00177598 3.52259 0.0565297 3.61865 0.152595C3.71472 0.24866 3.76947 0.378441 3.77125 0.514286V8.05714C3.76947 8.19299 3.71472 8.32277 3.61865 8.41883C3.52259 8.5149 3.39281 8.56965 3.25696 8.57143C3.12112 8.56965 2.99134 8.5149 2.89527 8.41883C2.79921 8.32277 2.74445 8.19299 2.74268 8.05714V0.514286C2.74445 0.378441 2.79921 0.24866 2.89527 0.152595C2.99134 0.0565297 3.12112 0.00177598 3.25696 0Z" fill="black"/>
<path fill-rule="evenodd" clip-rule="evenodd" d="M6.00013 0C6.13597 0.00177598 6.26575 0.0565297 6.36182 0.152595C6.45788 0.24866 6.51264 0.378441 6.51441 0.514286V8.05714C6.51264 8.19299 6.45788 8.32277 6.36182 8.41883C6.26575 8.5149 6.13597 8.56965 6.00013 8.57143C5.86428 8.56965 5.7345 8.5149 5.63843 8.41883C5.54237 8.32277 5.48762 8.19299 5.48584 8.05714V0.514286C5.48762 0.378441 5.54237 0.24866 5.63843 0.152595C5.7345 0.0565297 5.86428 0.00177598 6.00013 0Z" fill="black"/>
<path fill-rule="evenodd" clip-rule="evenodd" d="M8.7428 0C8.87865 0.00177598 9.00843 0.0565297 9.10449 0.152595C9.20056 0.24866 9.25531 0.378441 9.25709 0.514286V8.05714C9.25531 8.19299 9.20056 8.32277 9.10449 8.41883C9.00843 8.5149 8.87865 8.56965 8.7428 8.57143C8.60696 8.56965 8.47718 8.5149 8.38111 8.41883C8.28505 8.32277 8.23029 8.19299 8.22852 8.05714V0.514286C8.23029 0.378441 8.28505 0.24866 8.38111 0.152595C8.47718 0.0565297 8.60696 0.00177598 8.7428 0Z" fill="black"/>
<path fill-rule="evenodd" clip-rule="evenodd" d="M11.4855 0C11.6213 0.00177598 11.7511 0.0565297 11.8472 0.152595C11.9432 0.24866 11.998 0.378441 11.9998 0.514286V8.05714C11.998 8.19299 11.9432 8.32277 11.8472 8.41883C11.7511 8.5149 11.6213 8.56965 11.4855 8.57143C11.3496 8.56965 11.2199 8.5149 11.1238 8.41883C11.0277 8.32277 10.973 8.19299 10.9712 8.05714V0.514286C10.973 0.378441 11.0277 0.24866 11.1238 0.152595C11.2199 0.0565297 11.3496 0.00177598 11.4855 0Z" fill="black"/>
</svg>
