<svg width="10" height="12" viewBox="0 0 10 12" fill="none" xmlns="http://www.w3.org/2000/svg">
<path fill-rule="evenodd" clip-rule="evenodd" d="M0.72 0C0.910183 0.00248637 1.09188 0.0791416 1.22637 0.213633C1.36086 0.348124 1.43751 0.529817 1.44 0.72V11.28C1.43751 11.4702 1.36086 11.6519 1.22637 11.7864C1.09188 11.9209 0.910183 11.9975 0.72 12C0.529817 11.9975 0.348124 11.9209 0.213633 11.7864C0.0791416 11.6519 0.00248637 11.4702 0 11.28L0 0.72C0.00248637 0.529817 0.0791416 0.348124 0.213633 0.213633C0.348124 0.0791416 0.529817 0.00248637 0.72 0Z" fill="black"/>
<path fill-rule="evenodd" clip-rule="evenodd" d="M4.55984 0C4.75003 0.00248637 4.93172 0.0791416 5.06621 0.213633C5.2007 0.348124 5.27736 0.529817 5.27984 0.72V11.28C5.27736 11.4702 5.2007 11.6519 5.06621 11.7864C4.93172 11.9209 4.75003 11.9975 4.55984 12C4.36966 11.9975 4.18797 11.9209 4.05348 11.7864C3.91899 11.6519 3.84233 11.4702 3.83984 11.28V0.72C3.84233 0.529817 3.91899 0.348124 4.05348 0.213633C4.18797 0.0791416 4.36966 0.00248637 4.55984 0Z" fill="black"/>
<path fill-rule="evenodd" clip-rule="evenodd" d="M8.40018 0C8.59036 0.00248637 8.77205 0.0791416 8.90654 0.213633C9.04103 0.348124 9.11769 0.529817 9.12018 0.72V11.28C9.11769 11.4702 9.04103 11.6519 8.90654 11.7864C8.77205 11.9209 8.59036 11.9975 8.40018 12C8.20999 11.9975 8.0283 11.9209 7.89381 11.7864C7.75932 11.6519 7.68266 11.4702 7.68018 11.28V0.72C7.68266 0.529817 7.75932 0.348124 7.89381 0.213633C8.0283 0.0791416 8.20999 0.00248637 8.40018 0Z" fill="black"/>
</svg>
