<svg width="12" height="12" viewBox="0 0 12 12" fill="none" xmlns="http://www.w3.org/2000/svg">
<path fill-rule="evenodd" clip-rule="evenodd" d="M0.666667 0C0.842762 0.00230219 1.011 0.0732792 1.13553 0.197808C1.26005 0.322337 1.33103 0.490572 1.33333 0.666667V10.4444C1.33103 10.6205 1.26005 10.7888 1.13553 10.9133C1.011 11.0378 0.842762 11.1088 0.666667 11.1111C0.490572 11.1088 0.322337 11.0378 0.197808 10.9133C0.0732792 10.7888 0.00230219 10.6205 0 10.4444L0 0.666667C0.00230219 0.490572 0.0732792 0.322337 0.197808 0.197808C0.322337 0.0732792 0.490572 0.00230219 0.666667 0Z" fill="black"/>
<path fill-rule="evenodd" clip-rule="evenodd" d="M4.22233 0C4.39843 0.00230219 4.56666 0.0732792 4.69119 0.197808C4.81572 0.322337 4.8867 0.490572 4.889 0.666667V10.4444C4.8867 10.6205 4.81572 10.7888 4.69119 10.9133C4.56666 11.0378 4.39843 11.1088 4.22233 11.1111C4.04624 11.1088 3.878 11.0378 3.75347 10.9133C3.62894 10.7888 3.55797 10.6205 3.55566 10.4444V0.666667C3.55797 0.490572 3.62894 0.322337 3.75347 0.197808C3.878 0.0732792 4.04624 0.00230219 4.22233 0Z" fill="black"/>
<path fill-rule="evenodd" clip-rule="evenodd" d="M7.77799 0C7.95409 0.00230219 8.12232 0.0732792 8.24685 0.197808C8.37138 0.322337 8.44236 0.490572 8.44466 0.666667V10.4444C8.44236 10.6205 8.37138 10.7888 8.24685 10.9133C8.12232 11.0378 7.95409 11.1088 7.77799 11.1111C7.6019 11.1088 7.43366 11.0378 7.30914 10.9133C7.18461 10.7888 7.11363 10.6205 7.11133 10.4444V0.666667C7.11363 0.490572 7.18461 0.322337 7.30914 0.197808C7.43366 0.0732792 7.6019 0.00230219 7.77799 0Z" fill="black"/>
<path fill-rule="evenodd" clip-rule="evenodd" d="M11.3332 0C11.5093 0.00230219 11.6775 0.0732792 11.802 0.197808C11.9266 0.322337 11.9975 0.490572 11.9998 0.666667V10.4444C11.9975 10.6205 11.9266 10.7888 11.802 10.9133C11.6775 11.0378 11.5093 11.1088 11.3332 11.1111C11.1571 11.1088 10.9888 11.0378 10.8643 10.9133C10.7398 10.7888 10.6688 10.6205 10.6665 10.4444V0.666667C10.6688 0.490572 10.7398 0.322337 10.8643 0.197808C10.9888 0.0732792 11.1571 0.00230219 11.3332 0Z" fill="black"/>
</svg>
